<?xml version="1.0" encoding="UTF-8" standalone="no"?>
<svg
   aria-hidden="true"
   focusable="false"
   data-prefix="fas"
   data-icon="envelope"
   class="svg-inline--fa fa-envelope fa-w-16"
   role="img"
   viewBox="0 0 550 550"
   version="1.1"
   id="svg59"
   sodipodi:docname="email.svg"
   width="550"
   height="550"
   inkscape:version="1.1.1 (3bf5ae0d25, 2021-09-20)"
   xmlns:inkscape="http://www.inkscape.org/namespaces/inkscape"
   xmlns:sodipodi="http://sodipodi.sourceforge.net/DTD/sodipodi-0.dtd"
   xmlns="http://www.w3.org/2000/svg"
   xmlns:svg="http://www.w3.org/2000/svg"
   xmlns:rdf="http://www.w3.org/1999/02/22-rdf-syntax-ns#"
   xmlns:cc="http://creativecommons.org/ns#"
   xmlns:dc="http://purl.org/dc/elements/1.1/">
  <metadata
     id="metadata65">
    <rdf:RDF>
      <cc:Work
         rdf:about="">
        <dc:format>image/svg+xml</dc:format>
        <dc:type
           rdf:resource="http://purl.org/dc/dcmitype/StillImage" />
        <dc:title />
      </cc:Work>
    </rdf:RDF>
  </metadata>
  <defs
     id="defs63" />
  <sodipodi:namedview
     pagecolor="#ffffff"
     bordercolor="#666666"
     borderopacity="1"
     objecttolerance="10"
     gridtolerance="10"
     guidetolerance="10"
     inkscape:pageopacity="0"
     inkscape:pageshadow="2"
     inkscape:window-width="1366"
     inkscape:window-height="745"
     id="namedview61"
     showgrid="false"
     inkscape:zoom="1.0195312"
     inkscape:cx="524.26056"
     inkscape:cy="255.50959"
     inkscape:window-x="-8"
     inkscape:window-y="-8"
     inkscape:window-maximized="1"
     inkscape:current-layer="layer1"
     inkscape:document-rotation="0"
     inkscape:pagecheckerboard="true" />
  <g
     inkscape:groupmode="layer"
     id="layer1"
     inkscape:label="fondo">
    <circle
       style="display:inline;fill:#f0b323;fill-opacity:1;stroke-width:0.188976;stroke-opacity:0.746988"
       id="path20"
       cx="275"
       cy="275"
       r="262" />
  </g>
  <g
     inkscape:groupmode="layer"
     id="layer2"
     inkscape:label="img">
    <path
       fill="currentColor"
       d="M 443.36913,232.55208 C 446.03515,230.53385 450,232.42187 450,235.61198 V 368.75 C 450,386.0026 435.30273,400 417.1875,400 H 132.8125 C 114.69727,400 100,386.0026 100,368.75 V 235.67708 c 0,-3.25521 3.89648,-5.07812 6.63085,-3.05989 15.3125,11.32812 35.61525,25.71614 105.3418,73.95833 14.42383,10.02604 38.75977,31.11979 63.02735,30.98958 24.4043,0.19532 49.21875,-21.35416 63.0957,-30.98958 69.72657,-48.24219 89.96093,-62.69531 105.27343,-74.02344 z M 275,316.66667 c 15.85936,0.26041 38.6914,-19.01042 50.17578,-26.95313 90.71289,-62.69531 97.61719,-68.16406 118.53515,-83.78906 C 447.67578,202.99479 450,198.4375 450,193.61979 V 181.25 C 450,163.9974 435.30273,150 417.1875,150 H 132.8125 C 114.69727,150 100,163.9974 100,181.25 v 12.36979 c 0,4.81771 2.32422,9.3099 6.28907,12.30469 20.91796,15.55989 27.82226,21.09375 118.53515,83.78906 11.48438,7.94271 34.31642,27.21354 50.17578,26.95313 z"
       id="path57"
       style="fill:#ffffff;stroke-width:0.667119" />
  </g>
</svg>
