<?xml version="1.0" encoding="UTF-8" standalone="no"?>
<svg
   aria-hidden="true"
   focusable="false"
   data-prefix="fab"
   data-icon="instagram"
   class="svg-inline--fa fa-instagram fa-w-14"
   role="img"
   viewBox="0 0 550 550"
   version="1.1"
   id="svg42"
   sodipodi:docname="instagram.svg"
   inkscape:version="1.1.1 (3bf5ae0d25, 2021-09-20)"
   width="550"
   height="550"
   xmlns:inkscape="http://www.inkscape.org/namespaces/inkscape"
   xmlns:sodipodi="http://sodipodi.sourceforge.net/DTD/sodipodi-0.dtd"
   xmlns="http://www.w3.org/2000/svg"
   xmlns:svg="http://www.w3.org/2000/svg"
   xmlns:rdf="http://www.w3.org/1999/02/22-rdf-syntax-ns#"
   xmlns:cc="http://creativecommons.org/ns#"
   xmlns:dc="http://purl.org/dc/elements/1.1/">
  <metadata
     id="metadata48">
    <rdf:RDF>
      <cc:Work
         rdf:about="">
        <dc:format>image/svg+xml</dc:format>
        <dc:type
           rdf:resource="http://purl.org/dc/dcmitype/StillImage" />
        <dc:title />
      </cc:Work>
    </rdf:RDF>
  </metadata>
  <defs
     id="defs46" />
  <sodipodi:namedview
     pagecolor="#ffffff"
     bordercolor="#666666"
     borderopacity="1"
     objecttolerance="10"
     gridtolerance="10"
     guidetolerance="10"
     inkscape:pageopacity="0"
     inkscape:pageshadow="2"
     inkscape:window-width="1366"
     inkscape:window-height="745"
     id="namedview44"
     showgrid="false"
     inkscape:zoom="0.91437233"
     inkscape:cx="477.37665"
     inkscape:cy="256.46008"
     inkscape:window-x="-8"
     inkscape:window-y="-8"
     inkscape:window-maximized="1"
     inkscape:current-layer="layer3"
     inkscape:document-rotation="0"
     inkscape:pagecheckerboard="true" />
  <g
     inkscape:groupmode="layer"
     id="layer3"
     inkscape:label="fondo">
    <circle
       style="display:inline;fill:#f0b323;fill-opacity:1;stroke-width:0.188976;stroke-opacity:0.746988"
       id="path20"
       cx="275"
       cy="275"
       r="262" />
  </g>
  <g
     inkscape:groupmode="layer"
     id="layer4"
     inkscape:label="img">
    <path
       fill="currentColor"
       d="m 275.02789,210.90316 c -35.47128,0 -64.08256,28.61765 -64.08256,64.09684 0,35.4792 28.61128,64.09685 64.08256,64.09685 35.47127,0 64.08254,-28.61765 64.08254,-64.09685 0,-35.47919 -28.61127,-64.09684 -64.08254,-64.09684 z m 0,105.76816 c -22.92247,0 -41.66203,-18.68794 -41.66203,-41.67132 0,-22.98337 18.68377,-41.67131 41.66203,-41.67131 22.97825,0 41.66201,18.68794 41.66201,41.67131 0,22.98338 -18.73954,41.67132 -41.66201,41.67132 z m 81.65087,-108.39005 c 0,8.31195 -6.6927,14.95035 -14.94702,14.95035 -8.31011,0 -14.94702,-6.69418 -14.94702,-14.95035 0,-8.25616 6.6927,-14.95035 14.94702,-14.95035 8.25432,0 14.94702,6.69419 14.94702,14.95035 z m 42.44282,15.17349 c -0.94814,-20.02678 -5.52147,-37.76637 -20.18963,-52.38202 -14.61239,-14.61564 -32.34802,-19.19 -52.37032,-20.19413 -20.63581,-1.17148 -82.48745,-1.17148 -103.12327,0 -19.96653,0.94835 -37.70215,5.5227 -52.37032,20.13835 -14.66815,14.61564 -19.18572,32.35524 -20.18963,52.38201 -1.17122,20.64042 -1.17122,82.50587 0,103.14627 0.94813,20.02678 5.52148,37.76637 20.18963,52.38202 14.66817,14.61565 32.34801,19.19 52.37032,20.19413 20.63582,1.17148 82.48746,1.17148 103.12327,0 20.0223,-0.94834 37.75793,-5.52271 52.37032,-20.19413 14.61238,-14.61565 19.18573,-32.35524 20.18963,-52.38202 1.17123,-20.6404 1.17123,-82.45007 0,-103.09048 z m -26.65922,125.23709 c -4.35025,10.93383 -12.7719,19.35736 -23.75907,23.76436 -16.45287,6.52684 -55.49359,5.02065 -73.6754,5.02065 -18.18183,0 -57.27831,1.4504 -73.67541,-5.02065 -10.93141,-4.35122 -19.35304,-12.77473 -23.75907,-23.76436 C 171.06804,332.23531 172.5739,293.18588 172.5739,275 c 0,-18.18587 -1.45009,-57.29109 5.01951,-73.69184 4.35025,-10.93384 12.77188,-19.35736 23.75907,-23.76436 16.45288,-6.52684 55.49358,-5.02065 73.67541,-5.02065 18.18181,0 57.2783,-1.45041 73.6754,5.02065 10.93139,4.35121 19.35305,12.77474 23.75907,23.76436 6.52536,16.45654 5.01951,55.50597 5.01951,73.69184 0,18.18588 1.50585,57.29109 -5.01951,73.69185 z"
       id="path40"
       style="fill:#f6f5f4;fill-opacity:1;stroke-width:0.557786" />
  </g>
</svg>
