<?xml version="1.0" encoding="UTF-8" standalone="no"?>
<svg
   xmlns:dc="http://purl.org/dc/elements/1.1/"
   xmlns:cc="http://creativecommons.org/ns#"
   xmlns:rdf="http://www.w3.org/1999/02/22-rdf-syntax-ns#"
   xmlns:svg="http://www.w3.org/2000/svg"
   xmlns="http://www.w3.org/2000/svg"
   xmlns:sodipodi="http://sodipodi.sourceforge.net/DTD/sodipodi-0.dtd"
   xmlns:inkscape="http://www.inkscape.org/namespaces/inkscape"
   width="615"
   height="160"
   viewBox="0 0 162.71875 42.333334"
   version="1.1"
   id="svg8"
   inkscape:version="1.0.2-2 (e86c870879, 2021-01-15)"
   sodipodi:docname="logo-koulutus.svg">
  <defs
     id="defs2">
    <clipPath
       clipPathUnits="userSpaceOnUse"
       id="clipPath44">
      <path
         d="M 0,595.276 H 841.89 V 0 H 0 Z"
         id="path42" />
    </clipPath>
    <clipPath
       clipPathUnits="userSpaceOnUse"
       id="clipPath308">
      <path
         d="M 0,595.276 H 841.89 V 0 H 0 Z"
         id="path306" />
    </clipPath>
    <clipPath
       clipPathUnits="userSpaceOnUse"
       id="clipPath380">
      <path
         d="M 0,595.276 H 841.89 V 0 H 0 Z"
         id="path378" />
    </clipPath>
    <clipPath
       clipPathUnits="userSpaceOnUse"
       id="clipPath673">
      <path
         d="M 0,595.276 H 841.89 V 0 H 0 Z"
         id="path671" />
    </clipPath>
    <clipPath
       clipPathUnits="userSpaceOnUse"
       id="clipPath745">
      <path
         d="M 0,595.276 H 841.89 V 0 H 0 Z"
         id="path743" />
    </clipPath>
    <clipPath
       clipPathUnits="userSpaceOnUse"
       id="clipPath1038">
      <path
         d="M 0,595.276 H 841.89 V 0 H 0 Z"
         id="path1036" />
    </clipPath>
    <clipPath
       clipPathUnits="userSpaceOnUse"
       id="clipPath1110">
      <path
         d="M 0,595.276 H 841.89 V 0 H 0 Z"
         id="path1108" />
    </clipPath>
    <clipPath
       clipPathUnits="userSpaceOnUse"
       id="clipPath1403">
      <path
         d="M 0,595.276 H 841.89 V 0 H 0 Z"
         id="path1401" />
    </clipPath>
    <clipPath
       clipPathUnits="userSpaceOnUse"
       id="clipPath1475">
      <path
         d="M 0,595.276 H 841.89 V 0 H 0 Z"
         id="path1473" />
    </clipPath>
    <clipPath
       clipPathUnits="userSpaceOnUse"
       id="clipPath1770">
      <path
         d="M 0,595.276 H 841.89 V 0 H 0 Z"
         id="path1768" />
    </clipPath>
    <clipPath
       clipPathUnits="userSpaceOnUse"
       id="clipPath1790">
      <path
         d="M 0,595.276 H 841.89 V 0 H 0 Z"
         id="path1788" />
    </clipPath>
    <clipPath
       clipPathUnits="userSpaceOnUse"
       id="clipPath1850">
      <path
         d="M 0,595.276 H 841.89 V 0 H 0 Z"
         id="path1848" />
    </clipPath>
    <clipPath
       clipPathUnits="userSpaceOnUse"
       id="clipPath1870">
      <path
         d="M 0,595.276 H 841.89 V 0 H 0 Z"
         id="path1868" />
    </clipPath>
    <clipPath
       clipPathUnits="userSpaceOnUse"
       id="clipPath1942">
      <path
         d="M 0,595.276 H 841.89 V 0 H 0 Z"
         id="path1940" />
    </clipPath>
    <clipPath
       clipPathUnits="userSpaceOnUse"
       id="clipPath2218">
      <path
         d="M 0,595.276 H 841.89 V 0 H 0 Z"
         id="path2216" />
    </clipPath>
    <clipPath
       clipPathUnits="userSpaceOnUse"
       id="clipPath2481">
      <path
         d="M 0,595.276 H 841.89 V 0 H 0 Z"
         id="path2479" />
    </clipPath>
    <clipPath
       clipPathUnits="userSpaceOnUse"
       id="clipPath2553">
      <path
         d="M 0,595.276 H 841.89 V 0 H 0 Z"
         id="path2551" />
    </clipPath>
    <clipPath
       clipPathUnits="userSpaceOnUse"
       id="clipPath1109">
      <path
         style="fill:#000000;fill-opacity:1;stroke:none;stroke-width:0.749999px;stroke-linecap:butt;stroke-linejoin:miter;stroke-opacity:1"
         d="m 381.56435,238.15326 5.19803,47.52475 h 265.09901 v 72.77228 H 189.23762 V 235.92553 Z"
         id="path1111" />
    </clipPath>
  </defs>
  <sodipodi:namedview
     id="base"
     pagecolor="#ffffff"
     bordercolor="#666666"
     borderopacity="1.0"
     inkscape:pageopacity="0.0"
     inkscape:pageshadow="2"
     inkscape:zoom="1.01"
     inkscape:cx="432.57673"
     inkscape:cy="253.09503"
     inkscape:document-units="px"
     inkscape:current-layer="layer1"
     inkscape:document-rotation="0"
     showgrid="false"
     units="px"
     inkscape:pagecheckerboard="true"
     inkscape:showpageshadow="false"
     inkscape:window-width="1258"
     inkscape:window-height="729"
     inkscape:window-x="78"
     inkscape:window-y="0"
     inkscape:window-maximized="0"
     inkscape:snap-nodes="false"
     inkscape:snap-others="false" />
  <metadata
     id="metadata5">
    <rdf:RDF>
      <cc:Work
         rdf:about="">
        <dc:format>image/svg+xml</dc:format>
        <dc:type
           rdf:resource="http://purl.org/dc/dcmitype/StillImage" />
        <dc:title></dc:title>
      </cc:Work>
    </rdf:RDF>
  </metadata>
  <g
     inkscape:label="Capa 1"
     inkscape:groupmode="layer"
     id="layer1">
    <g
       id="g2194"
       inkscape:label="logo-koulutus"
       transform="matrix(0.35277777,0,0,-0.35277777,-67.020789,126.19133)"
       clip-path="url(#clipPath1109)">
      <g
         id="g2196"
         transform="translate(399.6039,268.6953)">
        <path
           d="M 0,0 V -1.356 H -7.922 V 9.56 h 7.704 V 8.203 H -6.363 V 4.851 h 5.474 V 3.524 H -6.363 V 0 Z"
           style="fill:#6335cc;fill-opacity:1;fill-rule:nonzero;stroke:none"
           id="path2198" />
      </g>
      <g
         id="g2200"
         transform="translate(402.9076,278.2549)">
        <path
           d="m 0,0 h 1.56 v -9.56 h 5.91 v -1.356 H 0 Z"
           style="fill:#6335cc;fill-opacity:1;fill-rule:nonzero;stroke:none"
           id="path2202" />
      </g>
      <g
         id="g2204"
         transform="translate(428.0424,267.3389)">
        <path
           d="M 0,0 -0.016,7.953 -3.961,1.325 H -4.678 L -8.623,7.906 V 0 h -1.497 v 10.916 h 1.278 l 4.554,-7.672 4.491,7.672 H 1.481 L 1.497,0 Z"
           style="fill:#6335cc;fill-opacity:1;fill-rule:nonzero;stroke:none"
           id="path2206" />
      </g>
      <g
         id="g2208"
         transform="translate(441.514,268.6953)">
        <path
           d="M 0,0 V -1.356 H -7.922 V 9.56 h 7.703 V 8.203 H -6.362 V 4.851 h 5.473 V 3.524 H -6.362 V 0 Z"
           style="fill:#6335cc;fill-opacity:1;fill-rule:nonzero;stroke:none"
           id="path2210" />
      </g>
      <g
         id="g2212">
        <g
           id="g2214"
           clip-path="url(#clipPath2218)">
          <g
             id="g2220"
             transform="translate(443.0394,268.7891)">
            <path
               d="m 0,0 0.904,1.061 c 0.593,-0.842 1.358,-1.294 2.278,-1.294 1.231,0 1.871,0.748 1.871,2.213 V 8.109 H 1.107 v 1.357 h 5.49 V 2.059 C 6.597,-0.374 5.411,-1.575 3.182,-1.575 1.888,-1.575 0.702,-1.014 0,0"
               style="fill:#6335cc;fill-opacity:1;fill-rule:nonzero;stroke:none"
               id="path2222" />
          </g>
          <g
             id="g2224"
             transform="translate(462.7494,272.7969)">
            <path
               d="m 0,0 c 0,2.417 -1.809,4.195 -4.226,4.195 -2.448,0 -4.257,-1.778 -4.257,-4.195 0,-2.417 1.809,-4.195 4.257,-4.195 C -1.809,-4.195 0,-2.417 0,0 m -10.043,0 c 0,3.197 2.465,5.583 5.817,5.583 3.322,0 5.786,-2.37 5.786,-5.583 0,-3.212 -2.464,-5.583 -5.786,-5.583 -3.352,0 -5.817,2.386 -5.817,5.583"
               style="fill:#6335cc;fill-opacity:1;fill-rule:nonzero;stroke:none"
               id="path2226" />
          </g>
          <g
             id="g2228"
             transform="translate(474.723,274.4502)">
            <path
               d="m 0,0 c 0,1.56 -1.045,2.448 -3.041,2.448 h -2.65 v -4.912 h 2.65 C -1.045,-2.464 0,-1.56 0,0 m 0.047,-7.111 -2.355,3.352 C -2.526,-3.774 -2.76,-3.79 -2.994,-3.79 h -2.697 v -3.321 h -1.56 V 3.805 h 4.257 C -0.155,3.805 1.56,2.37 1.56,0 c 0,-1.685 -0.873,-2.9 -2.402,-3.446 l 2.589,-3.665 z"
               style="fill:#6335cc;fill-opacity:1;fill-rule:nonzero;stroke:none"
               id="path2230" />
          </g>
          <g
             id="g2232"
             transform="translate(493.9486,278.2549)">
            <path
               d="m 0,0 v -10.916 h -1.279 l -6.549,8.141 v -8.141 h -1.56 V 0 h 1.279 L -1.56,-8.141 V 0 Z"
               style="fill:#6335cc;fill-opacity:1;fill-rule:nonzero;stroke:none"
               id="path2234" />
          </g>
          <g
             id="g2236"
             transform="translate(505.9222,268.6953)">
            <path
               d="M 0,0 V -1.356 H -7.922 V 9.56 h 7.703 V 8.203 H -6.362 V 4.851 h 5.473 V 3.524 H -6.362 V 0 Z"
               style="fill:#6335cc;fill-opacity:1;fill-rule:nonzero;stroke:none"
               id="path2238" />
          </g>
          <g
             id="g2240"
             transform="translate(516.7426,272.8594)">
            <path
               d="m 0,0 h 1.497 v -4.258 c -1.092,-0.92 -2.604,-1.388 -4.133,-1.388 -3.352,0 -5.816,2.356 -5.816,5.584 0,3.228 2.464,5.583 5.848,5.583 1.73,0 3.196,-0.578 4.194,-1.685 L 0.623,2.869 c -0.904,0.873 -1.934,1.264 -3.165,1.264 -2.526,0 -4.352,-1.763 -4.352,-4.195 0,-2.402 1.826,-4.196 4.336,-4.196 0.92,0 1.778,0.203 2.558,0.702 z"
               style="fill:#6335cc;fill-opacity:1;fill-rule:nonzero;stroke:none"
               id="path2242" />
          </g>
          <g
             id="g2244"
             transform="translate(531.1498,272.7969)">
            <path
               d="m 0,0 c 0,2.417 -1.809,4.195 -4.226,4.195 -2.448,0 -4.257,-1.778 -4.257,-4.195 0,-2.417 1.809,-4.195 4.257,-4.195 C -1.809,-4.195 0,-2.417 0,0 m -10.043,0 c 0,3.197 2.465,5.583 5.817,5.583 3.322,0 5.786,-2.37 5.786,-5.583 0,-3.212 -2.464,-5.583 -5.786,-5.583 -3.352,0 -5.817,2.386 -5.817,5.583"
               style="fill:#6335cc;fill-opacity:1;fill-rule:nonzero;stroke:none"
               id="path2246" />
          </g>
          <g
             id="g2248"
             transform="translate(534.9838,272.7969)">
            <path
               d="m 0,0 c 0,3.229 2.464,5.583 5.785,5.583 1.685,0 3.151,-0.577 4.149,-1.7 L 8.92,2.9 C 8.077,3.789 7.048,4.195 5.848,4.195 3.384,4.195 1.559,2.417 1.559,0 c 0,-2.417 1.825,-4.195 4.289,-4.195 1.2,0 2.229,0.422 3.072,1.31 L 9.934,-3.867 C 8.936,-4.99 7.47,-5.583 5.77,-5.583 2.464,-5.583 0,-3.228 0,0"
               style="fill:#6335cc;fill-opacity:1;fill-rule:nonzero;stroke:none"
               id="path2250" />
          </g>
          <path
             d="m 547.924,278.255 h 1.56 v -10.916 h -1.56 z"
             style="fill:#6335cc;fill-opacity:1;fill-rule:nonzero;stroke:none"
             id="path2252" />
          <g
             id="g2254"
             transform="translate(562.6898,272.7969)">
            <path
               d="m 0,0 c 0,2.417 -1.809,4.195 -4.226,4.195 -2.448,0 -4.257,-1.778 -4.257,-4.195 0,-2.417 1.809,-4.195 4.257,-4.195 C -1.809,-4.195 0,-2.417 0,0 m -10.042,0 c 0,3.197 2.464,5.583 5.816,5.583 3.322,0 5.786,-2.37 5.786,-5.583 0,-3.212 -2.464,-5.583 -5.786,-5.583 -3.352,0 -5.816,2.386 -5.816,5.583"
               style="fill:#6335cc;fill-opacity:1;fill-rule:nonzero;stroke:none"
               id="path2256" />
          </g>
          <g
             id="g2258"
             transform="translate(399.6039,249.9853)">
            <path
               d="M 0,0 V -1.356 H -7.922 V 9.56 h 7.704 V 8.203 H -6.363 V 4.851 h 5.474 V 3.524 H -6.363 V 0 Z"
               style="fill:#6335cc;fill-opacity:1;fill-rule:nonzero;stroke:none"
               id="path2260" />
          </g>
          <g
             id="g2262"
             transform="translate(401.9095,249.876)">
            <path
               d="m 0,0 0.577,1.217 c 0.811,-0.733 2.199,-1.263 3.603,-1.263 1.886,0 2.697,0.733 2.697,1.684 0,2.667 -6.612,0.982 -6.612,5.037 0,1.684 1.31,3.119 4.18,3.119 1.279,0 2.604,-0.343 3.509,-0.967 L 7.439,7.579 C 6.487,8.188 5.412,8.469 4.445,8.469 2.589,8.469 1.793,7.688 1.793,6.737 1.793,4.07 8.406,5.739 8.406,1.731 8.406,0.062 7.064,-1.372 4.18,-1.372 2.511,-1.372 0.874,-0.811 0,0"
               style="fill:#6335cc;fill-opacity:1;fill-rule:nonzero;stroke:none"
               id="path2264" />
          </g>
          <path
             d="m 418.343,259.545 h 1.56 v -10.916 h -1.56 z"
             style="fill:#6335cc;fill-opacity:1;fill-rule:nonzero;stroke:none"
             id="path2266" />
          <g
             id="g2268"
             transform="translate(433.3441,259.5449)">
            <path
               d="m 0,0 v -10.916 h -1.279 l -6.549,8.141 v -8.141 h -1.56 V 0 h 1.279 L -1.56,-8.141 V 0 Z"
               style="fill:#6335cc;fill-opacity:1;fill-rule:nonzero;stroke:none"
               id="path2270" />
          </g>
          <g
             id="g2272"
             transform="translate(446.7689,259.5449)">
            <path
               d="M 0,0 -4.788,-10.916 H -6.332 L -11.135,0 H -9.45 L -5.521,-8.967 -1.56,0 Z"
               style="fill:#6335cc;fill-opacity:1;fill-rule:nonzero;stroke:none"
               id="path2274" />
          </g>
          <g
             id="g2276"
             transform="translate(456.8568,249.9853)">
            <path
               d="M 0,0 V -1.356 H -7.922 V 9.56 h 7.703 V 8.203 H -6.362 V 4.851 h 5.473 V 3.524 H -6.362 V 0 Z"
               style="fill:#6335cc;fill-opacity:1;fill-rule:nonzero;stroke:none"
               id="path2278" />
          </g>
          <g
             id="g2280"
             transform="translate(467.4115,255.7402)">
            <path
               d="m 0,0 c 0,1.56 -1.045,2.448 -3.041,2.448 h -2.65 v -4.912 h 2.65 C -1.045,-2.464 0,-1.56 0,0 m 0.047,-7.111 -2.355,3.352 C -2.526,-3.774 -2.76,-3.79 -2.994,-3.79 h -2.697 v -3.321 h -1.56 V 3.805 h 4.257 C -0.156,3.805 1.56,2.37 1.56,0 c 0,-1.685 -0.873,-2.9 -2.402,-3.446 l 2.589,-3.665 z"
               style="fill:#6335cc;fill-opacity:1;fill-rule:nonzero;stroke:none"
               id="path2282" />
          </g>
          <g
             id="g2284"
             transform="translate(474.2855,258.1885)">
            <path
               d="M 0,0 H -3.742 V 1.356 H 5.287 V 0 H 1.544 V -9.56 H 0 Z"
               style="fill:#6335cc;fill-opacity:1;fill-rule:nonzero;stroke:none"
               id="path2286" />
          </g>
          <path
             d="m 482.051,259.545 h 1.56 v -10.916 h -1.56 z"
             style="fill:#6335cc;fill-opacity:1;fill-rule:nonzero;stroke:none"
             id="path2288" />
          <g
             id="g2290"
             transform="translate(494.9144,255.7402)">
            <path
               d="m 0,0 c 0,1.56 -1.045,2.448 -3.041,2.448 h -2.65 v -4.912 h 2.65 C -1.045,-2.464 0,-1.56 0,0 m 0.047,-7.111 -2.355,3.352 C -2.526,-3.774 -2.76,-3.79 -2.994,-3.79 h -2.697 v -3.321 h -1.56 V 3.805 h 4.257 C -0.155,3.805 1.56,2.37 1.56,0 c 0,-1.685 -0.873,-2.9 -2.402,-3.446 l 2.589,-3.665 z"
               style="fill:#6335cc;fill-opacity:1;fill-rule:nonzero;stroke:none"
               id="path2292" />
          </g>
          <g
             id="g2294"
             transform="translate(512.6742,249.9853)">
            <path
               d="M 0,0 V -1.356 H -7.922 V 9.56 h 7.703 V 8.203 H -6.362 V 4.851 h 5.473 V 3.524 H -6.362 V 0 Z"
               style="fill:#6335cc;fill-opacity:1;fill-rule:nonzero;stroke:none"
               id="path2296" />
          </g>
          <g
             id="g2298"
             transform="translate(525.3656,259.5449)">
            <path
               d="m 0,0 v -10.916 h -1.279 l -6.549,8.141 v -8.141 h -1.56 V 0 h 1.279 L -1.56,-8.141 V 0 Z"
               style="fill:#6335cc;fill-opacity:1;fill-rule:nonzero;stroke:none"
               id="path2300" />
          </g>
          <g
             id="g2302"
             transform="translate(536.558,258.1885)">
            <path
               d="M 0,0 H -3.742 V 1.356 H 5.287 V 0 H 1.544 V -9.56 H 0 Z"
               style="fill:#6335cc;fill-opacity:1;fill-rule:nonzero;stroke:none"
               id="path2304" />
          </g>
          <g
             id="g2306"
             transform="translate(544.0277,253.3389)">
            <path
               d="M 0,0 V 6.206 H 1.56 V 0.062 c 0,-2.417 1.107,-3.509 3.072,-3.509 1.965,0 3.087,1.092 3.087,3.509 V 6.206 H 9.231 V 0 c 0,-3.166 -1.73,-4.835 -4.615,-4.835 C 1.746,-4.835 0,-3.166 0,0"
               style="fill:#6335cc;fill-opacity:1;fill-rule:nonzero;stroke:none"
               id="path2308" />
          </g>
          <g
             id="g2310"
             transform="translate(571.5951,259.5449)">
            <path
               d="m 0,0 v -10.916 h -1.279 l -6.549,8.141 v -8.141 h -1.56 V 0 h 1.279 L -1.56,-8.141 V 0 Z"
               style="fill:#6335cc;fill-opacity:1;fill-rule:nonzero;stroke:none"
               id="path2312" />
          </g>
          <g
             id="g2314"
             transform="translate(583.5697,249.9853)">
            <path
               d="M 0,0 V -1.356 H -7.922 V 9.56 h 7.703 V 8.203 H -6.362 V 4.851 h 5.473 V 3.524 H -6.362 V 0 Z"
               style="fill:#6335cc;fill-opacity:1;fill-rule:nonzero;stroke:none"
               id="path2316" />
          </g>
          <g
             id="g2318"
             transform="translate(594.39,254.1494)">
            <path
               d="m 0,0 h 1.497 v -4.258 c -1.092,-0.92 -2.604,-1.388 -4.133,-1.388 -3.352,0 -5.817,2.356 -5.817,5.584 0,3.228 2.465,5.583 5.849,5.583 1.73,0 3.196,-0.578 4.194,-1.685 L 0.623,2.869 c -0.904,0.873 -1.934,1.264 -3.165,1.264 -2.526,0 -4.352,-1.763 -4.352,-4.195 0,-2.402 1.826,-4.196 4.336,-4.196 0.92,0 1.778,0.203 2.558,0.702 z"
               style="fill:#6335cc;fill-opacity:1;fill-rule:nonzero;stroke:none"
               id="path2320" />
          </g>
          <g
             id="g2322"
             transform="translate(608.7963,254.0869)">
            <path
               d="m 0,0 c 0,2.417 -1.809,4.195 -4.226,4.195 -2.448,0 -4.257,-1.778 -4.257,-4.195 0,-2.417 1.809,-4.195 4.257,-4.195 C -1.809,-4.195 0,-2.417 0,0 m -10.043,0 c 0,3.197 2.465,5.583 5.817,5.583 3.322,0 5.786,-2.37 5.786,-5.583 0,-3.213 -2.464,-5.583 -5.786,-5.583 -3.352,0 -5.817,2.386 -5.817,5.583"
               style="fill:#6335cc;fill-opacity:1;fill-rule:nonzero;stroke:none"
               id="path2324" />
          </g>
          <g
             id="g2326"
             transform="translate(612.6302,254.0869)">
            <path
               d="m 0,0 c 0,3.229 2.465,5.583 5.786,5.583 1.685,0 3.151,-0.577 4.149,-1.7 L 8.921,2.9 C 8.078,3.789 7.049,4.195 5.849,4.195 3.385,4.195 1.56,2.417 1.56,0 c 0,-2.417 1.825,-4.195 4.289,-4.195 1.2,0 2.229,0.422 3.072,1.31 L 9.935,-3.867 C 8.937,-4.99 7.471,-5.583 5.771,-5.583 2.465,-5.583 0,-3.228 0,0"
               style="fill:#6335cc;fill-opacity:1;fill-rule:nonzero;stroke:none"
               id="path2328" />
          </g>
          <path
             d="m 625.572,259.545 h 1.56 v -10.916 h -1.56 z"
             style="fill:#6335cc;fill-opacity:1;fill-rule:nonzero;stroke:none"
             id="path2330" />
          <g
             id="g2332"
             transform="translate(640.3373,254.0869)">
            <path
               d="m 0,0 c 0,2.417 -1.809,4.195 -4.226,4.195 -2.448,0 -4.257,-1.778 -4.257,-4.195 0,-2.417 1.809,-4.195 4.257,-4.195 C -1.809,-4.195 0,-2.417 0,0 m -10.043,0 c 0,3.197 2.465,5.583 5.817,5.583 3.322,0 5.786,-2.37 5.786,-5.583 0,-3.213 -2.464,-5.583 -5.786,-5.583 -3.352,0 -5.817,2.386 -5.817,5.583"
               style="fill:#6335cc;fill-opacity:1;fill-rule:nonzero;stroke:none"
               id="path2334" />
          </g>
          <g
             id="g2336"
             transform="translate(358.2235,283.791)">
            <path
               d="m 0,0 c -0.544,0 -1.055,-0.243 -1.407,-0.656 -10.238,-12.025 -25.487,-19.652 -42.516,-19.652 -17.03,0 -32.279,7.627 -42.516,19.652 C -86.792,-0.243 -87.303,0 -87.847,0 h -18.519 c -1.452,0 -2.344,-1.588 -1.597,-2.833 13.043,-21.74 36.841,-36.29 64.04,-36.29 27.197,0 50.996,14.55 64.04,36.29 C 20.863,-1.588 19.971,0 18.52,0 Z"
               style="fill:#f0b323;fill-opacity:1;fill-rule:nonzero;stroke:none"
               id="path2338" />
          </g>
          <g
             id="g2340"
             transform="translate(319.6732,319.271)">
            <path
               d="m 0,0 v 25.831 c 0,2.919 1.593,4.512 4.512,4.512 h 8.581 c 2.919,0 4.512,-1.593 4.512,-4.512 V -1.15 c 0,-6.812 4.246,-11.323 10.438,-11.323 6.281,0 10.439,4.511 10.439,11.323 v 26.981 c 0,2.919 1.592,4.512 4.511,4.512 h 8.316 c 3.007,0 4.6,-1.593 4.6,-4.512 L 55.909,0 c 0,-16.985 -11.146,-28.22 -27.866,-28.22 C 11.235,-28.22 0,-16.985 0,0"
               style="fill:#f0b323;fill-opacity:1;fill-rule:nonzero;stroke:none"
               id="path2342" />
          </g>
          <g
             id="g2344"
             transform="translate(382.306,296.6245)">
            <path
               d="m 0,0 v 48.477 c 0,2.919 1.592,4.512 4.511,4.512 h 8.582 c 2.919,0 4.511,-1.593 4.511,-4.512 V 9.73 h 17.339 c 2.919,0 4.512,-1.592 4.512,-4.512 V 0 c 0,-2.919 -1.593,-4.512 -4.512,-4.512 H 4.511 C 1.592,-4.512 0,-2.919 0,0"
               style="fill:#6335cc;fill-opacity:1;fill-rule:nonzero;stroke:none"
               id="path2346" />
          </g>
          <g
             id="g2348"
             transform="translate(421.5848,319.271)">
            <path
               d="m 0,0 v 25.831 c 0,2.919 1.593,4.512 4.512,4.512 h 8.581 c 2.919,0 4.511,-1.593 4.511,-4.512 V -1.15 c 0,-6.812 4.247,-11.323 10.438,-11.323 6.282,0 10.439,4.511 10.439,11.323 v 26.981 c 0,2.919 1.593,4.512 4.513,4.512 h 8.315 c 3.008,0 4.601,-1.593 4.601,-4.512 V 0 C 55.91,-16.985 44.763,-28.22 28.042,-28.22 11.235,-28.22 0,-16.985 0,0"
               style="fill:#6335cc;fill-opacity:1;fill-rule:nonzero;stroke:none"
               id="path2350" />
          </g>
          <g
             id="g2352"
             transform="translate(497.0433,296.6245)">
            <path
               d="m 0,0 v 38.747 h -13.003 c -2.919,0 -4.512,1.592 -4.512,4.512 v 5.218 c 0,2.919 1.593,4.512 4.512,4.512 h 43.612 c 2.919,0 4.512,-1.593 4.512,-4.512 v -5.218 c 0,-2.92 -1.593,-4.512 -4.512,-4.512 H 17.605 V 0 c 0,-2.919 -1.592,-4.512 -4.512,-4.512 H 4.513 C 1.593,-4.512 0,-2.919 0,0"
               style="fill:#6335cc;fill-opacity:1;fill-rule:nonzero;stroke:none"
               id="path2354" />
          </g>
          <g
             id="g2356"
             transform="translate(534.3754,319.271)">
            <path
               d="m 0,0 v 25.831 c 0,2.919 1.593,4.512 4.513,4.512 h 8.58 c 2.92,0 4.512,-1.593 4.512,-4.512 V -1.15 c 0,-6.812 4.246,-11.323 10.439,-11.323 6.281,0 10.438,4.511 10.438,11.323 v 26.981 c 0,2.919 1.593,4.512 4.512,4.512 h 8.316 c 3.007,0 4.599,-1.593 4.599,-4.512 L 55.909,0 c 0,-16.985 -11.145,-28.22 -27.865,-28.22 C 11.235,-28.22 0,-16.985 0,0"
               style="fill:#6335cc;fill-opacity:1;fill-rule:nonzero;stroke:none"
               id="path2358" />
          </g>
          <g
             id="g2360"
             transform="translate(595.1508,298.9238)">
            <path
               d="m 0,0 c -2.3,1.946 -2.742,4.159 -0.885,6.37 l 3.716,4.6 c 1.946,2.211 4.07,2.566 6.369,0.884 3.451,-2.565 8.936,-5.042 13.359,-5.042 4.247,0 6.9,1.327 6.9,3.45 0,3.096 -3.804,3.274 -9.465,4.865 C 11.059,17.604 0.62,22.558 0.62,33.97 c 0,10.527 9.465,17.781 23.178,17.781 8.05,0 15.039,-2.565 19.815,-6.191 2.388,-1.858 3.096,-3.982 1.239,-6.282 l -3.539,-4.424 c -1.858,-2.299 -4.069,-2.565 -6.37,-0.884 -2.741,1.946 -6.457,3.981 -10.792,3.981 -3.362,0 -5.485,-1.239 -5.485,-3.185 0,-2.83 3.98,-4.157 7.784,-5.219 9.909,-2.83 21.144,-6.193 21.144,-19.285 C 47.594,-1.681 36.447,-7.873 23.62,-7.873 13.89,-7.873 5.485,-4.688 0,0"
               style="fill:#6335cc;fill-opacity:1;fill-rule:nonzero;stroke:none"
               id="path2362" />
          </g>
          <g
             id="g2364"
             transform="translate(283.0072,307.0464)">
            <path
               d="m 0,0 c -7.629,0 -13.813,6.184 -13.813,13.813 0,7.628 6.184,13.812 13.813,13.812 7.628,0 13.813,-6.184 13.813,-13.812 C 13.813,6.184 7.628,0 0,0 m 0,43.701 c -16.507,0 -29.889,-13.382 -29.889,-29.888 0,-16.507 13.382,-29.889 29.889,-29.889 16.507,0 29.888,13.382 29.888,29.889 0,16.506 -13.381,29.888 -29.888,29.888"
               style="fill:#f0b323;fill-opacity:1;fill-rule:nonzero;stroke:none"
               id="path2366" />
          </g>
          <g
             id="g2368"
             transform="translate(249.6566,296.6245)">
            <path
               d="M 0,0 -17.604,27.512 -0.62,48.477 c 2.212,2.654 0.62,4.512 -2.388,4.512 h -11.678 c -3.007,0 -4.422,-1.858 -6.545,-4.512 L -35.73,30.661 v 19.935 c 0,1.855 -1.504,3.359 -3.359,3.359 h -8.743 c -1.855,0 -3.359,-1.504 -3.359,-3.359 V -1.109 c 0,-1.855 1.504,-3.358 3.359,-3.358 h 8.743 c 1.855,0 3.359,1.503 3.359,3.358 V 23.547 L -20.17,0 c 1.77,-2.919 3.362,-4.512 6.458,-4.512 H -2.389 C 0.619,-4.512 1.857,-2.919 0,0"
               style="fill:#6335cc;fill-opacity:1;fill-rule:nonzero;stroke:none"
               id="path2370" />
          </g>
        </g>
      </g>
    </g>
  </g>
</svg>
