<?xml version="1.0" encoding="UTF-8" standalone="no"?>
<svg
   aria-hidden="true"
   focusable="false"
   data-prefix="fab"
   data-icon="twitter"
   class="svg-inline--fa fa-twitter fa-w-16"
   role="img"
   viewBox="0 0 550 550"
   version="1.1"
   id="svg4"
   sodipodi:docname="twitter.svg"
   inkscape:version="1.1.1 (3bf5ae0d25, 2021-09-20)"
   width="550"
   height="550"
   xmlns:inkscape="http://www.inkscape.org/namespaces/inkscape"
   xmlns:sodipodi="http://sodipodi.sourceforge.net/DTD/sodipodi-0.dtd"
   xmlns="http://www.w3.org/2000/svg"
   xmlns:svg="http://www.w3.org/2000/svg"
   xmlns:rdf="http://www.w3.org/1999/02/22-rdf-syntax-ns#"
   xmlns:cc="http://creativecommons.org/ns#"
   xmlns:dc="http://purl.org/dc/elements/1.1/">
  <metadata
     id="metadata10">
    <rdf:RDF>
      <cc:Work
         rdf:about="">
        <dc:format>image/svg+xml</dc:format>
        <dc:type
           rdf:resource="http://purl.org/dc/dcmitype/StillImage" />
        <dc:title />
      </cc:Work>
    </rdf:RDF>
  </metadata>
  <defs
     id="defs8">
    <linearGradient
       id="linearGradient2792"
       inkscape:swatch="solid">
      <stop
         style="stop-color:#00006b;stop-opacity:1;"
         offset="0"
         id="stop2790" />
    </linearGradient>
  </defs>
  <sodipodi:namedview
     pagecolor="#ffffff"
     bordercolor="#666666"
     borderopacity="1"
     objecttolerance="10"
     gridtolerance="10"
     guidetolerance="10"
     inkscape:pageopacity="0"
     inkscape:pageshadow="2"
     inkscape:window-width="1366"
     inkscape:window-height="745"
     id="namedview6"
     showgrid="false"
     inkscape:zoom="1.1289062"
     inkscape:cx="577.99311"
     inkscape:cy="255.5571"
     inkscape:window-x="-8"
     inkscape:window-y="-8"
     inkscape:window-maximized="1"
     inkscape:current-layer="layer8"
     inkscape:document-rotation="0"
     inkscape:pagecheckerboard="true" />
  <g
     inkscape:groupmode="layer"
     id="layer8"
     inkscape:label="fondo">
    <circle
       style="display:inline;fill:#f0b323;fill-opacity:1;stroke-width:0.188976;stroke-opacity:0.746988"
       id="path20"
       cx="275"
       cy="275"
       r="262" />
  </g>
  <g
     inkscape:groupmode="layer"
     id="layer7"
     inkscape:label="img">
    <path
       fill="currentColor"
       d="m 394.16318,212.30446 c 0.19052,2.73425 0.19052,5.46909 0.19052,8.20333 C 394.3537,303.90586 332.48834,400 219.41664,400 184.58136,400 152.22108,389.64798 125,371.68001 c 4.94943,0.58556 9.70784,0.78096 14.84773,0.78096 28.74331,0 55.20318,-9.96064 76.33279,-26.95288 -27.0306,-0.58617 -49.68303,-18.75013 -57.48776,-43.75031 3.8074,0.58557 7.61422,0.97634 11.61217,0.97634 5.52009,0 11.04086,-0.78156 16.18007,-2.14807 -28.1725,-5.85988 -49.30273,-31.25023 -49.30273,-61.91428 v -0.78096 c 8.18495,4.68753 17.70365,7.61716 27.79185,8.00734 -16.56106,-11.32836 -27.41099,-30.66406 -27.41099,-52.53922 0,-11.71853 3.04513,-22.46072 8.37535,-31.83579 30.26674,38.28123 75.76219,63.28081 126.77689,66.01565 -0.9515,-4.68753 -1.52276,-9.56986 -1.52276,-14.45277 0,-34.76603 27.41132,-63.08602 61.48489,-63.08602 17.70303,0 33.69273,7.61717 44.92416,19.92187 13.89556,-2.73425 27.2204,-8.00795 39.02288,-15.23434 -4.56928,14.64877 -14.27702,26.95347 -27.03061,34.76543 12.37346,-1.36653 24.36578,-4.88293 35.40607,-9.76524 -8.37429,12.49948 -18.84445,23.63184 -30.83682,32.61674 z"
       id="path2"
       style="fill:#ffffff;fill-opacity:1;stroke-width:0.593519" />
  </g>
</svg>
